<svg width="270" height="270" viewBox="0 0 270 270" fill="none" xmlns="http://www.w3.org/2000/svg">
    <rect width="270" height="270" fill="url(#paint0_linear)"/>
    <defs>
        <filter id="dropShadow" color-interpolation-filters="sRGB" filterUnits="userSpaceOnUse" height="270" width="284">
            <feDropShadow dx="0" dy="2" stdDeviation="1" flood-opacity="0.425" />
        </filter>
    </defs>

    <path style=" stroke:none;fill-rule:nonzero;fill:rgb(100%,100%,100%);fill-opacity:1;" d="M 36.035156 52.03125 L 40.121094 59.984375 L 48.515625 56.414062 L 44.484375 48.433594 Z M 36.035156 52.03125 "/>
    <path style=" stroke:none;fill-rule:nonzero;fill:rgb(100%,100%,100%);fill-opacity:1;" d="M 64.890625 49.441406 L 60.800781 41.484375 L 52.761719 44.90625 L 56.796875 52.886719 Z M 64.890625 49.441406 "/>
    <path style=" stroke:none;fill-rule:nonzero;fill:rgb(100%,100%,100%);fill-opacity:1;" d="M 78.785156 15.082031 L 69.535156 15.082031 L 69.535156 73.4375 L 67.175781 73.4375 L 56.796875 52.886719 L 48.515625 56.414062 L 62.109375 83.324219 L 62.269531 83.636719 L 78.785156 83.636719 Z M 78.785156 15.082031 "/>
    <path style=" stroke:none;fill-rule:nonzero;fill:rgb(100%,100%,100%);fill-opacity:1;" d="M 39.050781 17.761719 L 37.695312 15.082031 L 21.210938 15.082031 L 21.210938 83.636719 L 30.464844 83.636719 L 30.464844 25.34375 L 32.820312 25.34375 L 44.484375 48.433594 L 52.761719 44.90625 Z M 39.050781 17.761719 "/>

    <text x="24" y="232" font-size="26px" fill="white" filter="url(#dropShadow)">{aleonameservice}</text>

    <defs>
        <style>
            text {
            font-family: Satoshi, DejaVu Sans, Noto Color Emoji, Apple Color Emoji, sans-serif;
            font-style: normal;
            font-variant-numeric: tabular-nums;
            font-weight: bold;
            font-variant-ligatures: none;
            font-family: 'Satoshi', sans-serif;
            font-feature-settings: "ss01" on, "ss03" on;
            -moz-font-feature-settings: "ss01" on, "ss03" on;
            line-height: 32px;
            }
        </style>
        <linearGradient id="paint0_linear" x1="190.5" y1="302" x2="-64" y2="-172.5" gradientUnits="userSpaceOnUse">
            <stop stop-color="#44BCF0"/>
            <stop offset="0.428185" stop-color="#628BF3"/>
            <stop offset="1" stop-color="#A099FF"/>
        </linearGradient>
        <linearGradient id="paint1_linear" x1="0" y1="0" x2="269.553" y2="285.527" gradientUnits="userSpaceOnUse">
            <stop stop-color="#EB9E9E"/>
            <stop offset="1" stop-color="#992222"/>
        </linearGradient>
    </defs>
</svg>